# xmcd
#
# Track frame offsets:
#	150
#	19186
#	33346
#	44684
#	72817
#	84622
#	105221
#	115509
#	129038
#	142196
#	160738
#	175000
#	186191
#	212033
#	224261
#	238816
#	252262
#	266400
#	281430
#
# Disc length: 3951 seconds
#
# Revision: 1
# Processed by: cddbd v1.5.2PL0 Copyright (c) Steve Scherf et al.
# Submitted via: audiograbber 1.83.01
#
DISCID=070f6d13
DTITLE=Farmer Dan - The Foot and Mouth Song
DYEAR=1900
DGENRE=Irish Country
TTITLE0=Take Me Back To Castlebar
TTITLE1=Boyle In The County Roscommon
TTITLE2=The Luv Bug
TTITLE3=The Blacksheep
TTITLE4=Rollin In My Sweet Baby's Armes
TTITLE5=The JCB Song
TTITLE6=Shoe The Donkey
TTITLE7=Old Log Cabin For Sale
TTITLE8=My Dromara Hills
TTITLE9=In An Irish Country Home
TTITLE10=I heard The Bluebirds Sing
TTITLE11=Little Cabin Home On The Hill
TTITLE12=Tiger By The Tail, We Split The Blanket, Buckaroo, Open Up Your Heart,
TTITLE12=Love's Gonna Live Here, My HeThe Pet Calf
TTITLE13=The Pet Calf
TTITLE14=Angeline (Would You Like To Dance )
TTITLE15=The Whistling Gipsy
TTITLE16=So Afraid of Loosing You Again
TTITLE17=All God's Creatures
TTITLE18=The Foot and Mouth Song
EXTD=
EXTT0=
EXTT1=
EXTT2=
EXTT3=
EXTT4=
EXTT5=
EXTT6=
EXTT7=
EXTT8=
EXTT9=
EXTT10=
EXTT11=
EXTT12=
EXTT13=
EXTT14=
EXTT15=
EXTT16=
EXTT17=
EXTT18=
PLAYORDER=
